<svg width="16" height="16" viewBox="0 0 16 16" xmlns="http://www.w3.org/2000/svg" fill="currentColor">
  <path d="M8 1C4.136 1 1 4.136 1 8s3.136 7 7 7c1.73 0 3.384-.656 4.656-1.844l-.656-.656C10.936 13.448 9.504 14 8 14c-3.312 0-6-2.688-6-6s2.688-6 6-6c3.312 0 6 2.688 6 6v.844c0 .824-.676 1.5-1.5 1.5S11 9.668 11 8.844V8c0-1.656-1.344-3-3-3S5 6.344 5 8s1.344 3 3 3c.824 0 1.572-.332 2.116-.876C10.564 10.668 11.26 11 12 11c1.38 0 2.5-1.12 2.5-2.5V8c0-3.864-3.136-7-7-7zm0 9c-1.104 0-2-.896-2-2s.896-2 2-2 2 .896 2 2-.896 2-2 2z"/>
</svg> 