<?xml version="1.0" standalone="no"?><!DOCTYPE svg PUBLIC "-//W3C//DTD SVG 1.1//EN" "http://www.w3.org/Graphics/SVG/1.1/DTD/svg11.dtd"><svg t="1742050307158" class="icon" viewBox="0 0 1024 1024" version="1.1" xmlns="http://www.w3.org/2000/svg" p-id="16715" xmlns:xlink="http://www.w3.org/1999/xlink" width="200" height="200"><path d="M0 0h1024v1024H0z" fill="#FFFFFF" p-id="16716"></path><path d="M128 480a32 32 0 1 0-64 0h64z m832 0a32 32 0 1 0-64 0h64z m-64 32c0 212.064-171.936 384-384 384v64c247.424 0 448-200.576 448-448h-64zM512 896C299.936 896 128 724.064 128 512H64c0 247.424 200.576 448 448 448v-64zM128 512C128 299.936 299.936 128 512 128V64C264.576 64 64 264.576 64 512h64zM512 128c212.064 0 384 171.936 384 384h64c0-247.424-200.576-448-448-448v64z m0 768c-33.024 0-73.056-30.336-106.72-103.264C372.896 722.56 352 623.36 352 512H288c0 118.4 22.08 227.2 59.2 307.552C383.04 897.216 438.944 960 512 960v-64z m-160-384c0-111.328 20.896-210.56 53.28-280.736C438.944 158.336 478.976 128 512 128V64c-73.024 0-128.96 62.784-164.8 140.448C310.08 284.768 288 393.568 288 512h64z m160 448c73.024 0 128.96-62.784 164.8-140.448C713.92 739.232 736 630.432 736 512h-64c0 111.328-20.896 210.56-53.28 280.736C585.056 865.664 545.024 896 512 896v64z m224-448c0-118.4-22.08-227.2-59.2-307.552C640.96 126.784 585.056 64 512 64v64c33.024 0 73.056 30.336 106.72 103.264C651.104 301.44 672 400.64 672 512h64zM64 480c0 16.64 7.456 30.368 16.512 40.576 8.864 10.016 20.48 18.144 32.864 24.896 24.736 13.472 58.4 24.64 97.28 33.6C288.928 597.12 395.456 608 512 608v-64c-113.184 0-214.656-10.624-286.976-27.296-36.384-8.416-63.648-17.952-80.992-27.424-8.704-4.736-13.44-8.672-15.648-11.168C126.4 475.84 128 476.608 128 480H64z m448 128c116.544 0 223.072-10.88 301.344-28.928 38.88-8.96 72.544-20.128 97.28-33.6 12.352-6.752 24-14.88 32.864-24.896 9.056-10.24 16.512-23.936 16.512-40.576h-64c0-3.392 1.632-4.16-0.384-1.888-2.24 2.496-6.944 6.4-15.648 11.168-17.344 9.472-44.608 19.008-80.992 27.424-72.32 16.672-173.76 27.296-286.976 27.296v64z" fill="#000000" p-id="16717"></path></svg>