<?xml version="1.0" standalone="no"?><!DOCTYPE svg PUBLIC "-//W3C//DTD SVG 1.1//EN" "http://www.w3.org/Graphics/SVG/1.1/DTD/svg11.dtd"><svg t="1742050194073" class="icon" viewBox="0 0 1024 1024" version="1.1" xmlns="http://www.w3.org/2000/svg" p-id="11423" xmlns:xlink="http://www.w3.org/1999/xlink" width="200" height="200"><path d="M200 1024c-35.296 0-64-28.704-64-64s28.704-64 64-64a16 16 0 1 1 0 32c-17.648 0-32 14.352-32 32s14.352 32 32 32a16 16 0 1 1 0 32z" p-id="11424"></path><path d="M840 1024h-640a16 16 0 1 1 0-32h640a16 16 0 1 1 0 32zM823.984 928H200a16 16 0 1 1 0-32h623.984a16 16 0 1 1 0 32zM152 80a16 16 0 0 1-16-16c0-35.296 28.704-64 64-64a16 16 0 1 1 0 32c-17.648 0-32 14.352-32 32a16 16 0 0 1-16 16zM872 80a16 16 0 0 1-16-16c0-17.648-14.352-32-32-32a16 16 0 1 1 0-32c35.296 0 64 28.704 64 64a16 16 0 0 1-16 16z" p-id="11425"></path><path d="M823.984 928a16 16 0 1 1 0-32c17.648 0 32-14.352 32-32a16 16 0 1 1 32 0c0 35.296-28.704 64-64 64zM823.984 1024a16 16 0 1 1 0-32c17.648 0 32-14.352 32-32a16 16 0 1 1 32 0c0 35.296-28.704 64-64 64zM824 32h-624a16 16 0 1 1 0-32h624a16 16 0 1 1 0 32zM152 976a16 16 0 0 1-16-16v-144a16 16 0 1 1 32 0v144a16 16 0 0 1-16 16z" p-id="11426"></path><path d="M872 976a16 16 0 0 1-16-16V64a16 16 0 1 1 32 0v896a16 16 0 0 1-16 16zM808 1024a16 16 0 0 1-16-16v-96a16 16 0 1 1 32 0v96a16 16 0 0 1-16 16zM264 928a16 16 0 0 1-16-16V16a16 16 0 1 1 32 0v896a16 16 0 0 1-16 16zM184 832h-64c-26.464 0-48-21.536-48-48s21.536-48 48-48h64c26.464 0 48 21.536 48 48s-21.536 48-48 48z m-64-64a16 16 0 0 0 0 32h64a16 16 0 0 0 0-32h-64zM184 672h-64c-26.464 0-48-21.536-48-48s21.536-48 48-48h64c26.464 0 48 21.536 48 48s-21.536 48-48 48z m-64-64a16 16 0 0 0 0 32h64a16 16 0 0 0 0-32h-64zM184 512h-64c-26.464 0-48-21.536-48-48s21.536-48 48-48h64c26.464 0 48 21.536 48 48s-21.536 48-48 48z m-64-64a16.016 16.016 0 0 0 0 32h64a16.016 16.016 0 0 0 0-32h-64zM184 352h-64c-26.464 0-48-21.536-48-48s21.536-48 48-48h64c26.464 0 48 21.536 48 48s-21.536 48-48 48z m-64-64a16.016 16.016 0 0 0 0 32h64a16.016 16.016 0 0 0 0-32h-64zM184 192h-64c-26.464 0-48-21.536-48-48s21.536-48 48-48h64c26.464 0 48 21.536 48 48s-21.536 48-48 48z m-64-64a16.016 16.016 0 0 0 0 32h64a16.016 16.016 0 0 0 0-32h-64z" p-id="11427"></path><path d="M152 768a16 16 0 0 1-16-16v-96a16 16 0 1 1 32 0v96a16 16 0 0 1-16 16zM152 128a16 16 0 0 1-16-16V64a16 16 0 1 1 32 0v48a16 16 0 0 1-16 16zM152 288a16 16 0 0 1-16-16v-96a16 16 0 1 1 32 0v96a16 16 0 0 1-16 16zM152 448a16 16 0 0 1-16-16v-96a16 16 0 1 1 32 0v96a16 16 0 0 1-16 16zM152 608a16 16 0 0 1-16-16v-96a16 16 0 1 1 32 0v96a16 16 0 0 1-16 16zM904 272h-32a16 16 0 1 1 0-32h32c8.832 0 16-7.184 16-16v-64c0-8.816-7.168-16-16-16h-32a16 16 0 1 1 0-32h32c26.464 0 48 21.536 48 48v64c0 26.464-21.536 48-48 48zM904 464h-32a16 16 0 1 1 0-32h32c8.832 0 16-7.184 16-16v-64c0-8.816-7.168-16-16-16h-32a16 16 0 1 1 0-32h32c26.464 0 48 21.536 48 48v64c0 26.464-21.536 48-48 48zM904 656h-32a16 16 0 1 1 0-32h32a16 16 0 0 0 16-16v-64a16 16 0 0 0-16-16h-32a16 16 0 1 1 0-32h32c26.464 0 48 21.536 48 48v64c0 26.464-21.536 48-48 48zM808 976h-608a16 16 0 1 1 0-32h608a16 16 0 1 1 0 32zM568 576c-97.04 0-176-78.96-176-176s78.96-176 176-176 176 78.96 176 176-78.96 176-176 176z m0-320c-79.408 0-144 64.608-144 144s64.592 144 144 144 144-64.608 144-144-64.592-144-144-144z" p-id="11428"></path><path d="M568 464c-44.112 0-80-35.888-80-80s35.888-80 80-80 80 35.888 80 80-35.888 80-80 80z m0-128c-26.464 0-48 21.536-48 48s21.536 48 48 48 48-21.536 48-48-21.536-48-48-48z" p-id="11429"></path><path d="M459.008 533.056a16 16 0 0 1-15.536-19.872 128.912 128.912 0 0 1 84.848-90.688 16 16 0 0 1 9.84 30.464 96.704 96.704 0 0 0-63.664 68 15.936 15.936 0 0 1-15.488 12.096zM676.416 533.568c-7.184 0-13.728-4.896-15.536-12.192a96.592 96.592 0 0 0-63.328-68.304 16 16 0 1 1 9.968-30.4 128.848 128.848 0 0 1 84.448 91.072 16.016 16.016 0 0 1-15.552 19.824z" p-id="11430"></path><path d="M712 656h-288a16 16 0 1 1 0-32h288a16 16 0 1 1 0 32z" p-id="11431"></path><path d="M648 720h-160a16 16 0 1 1 0-32h160a16 16 0 1 1 0 32z" p-id="11432"></path></svg>