<?xml version="1.0" standalone="no"?>
<!DOCTYPE svg PUBLIC "-//W3C//DTD SVG 1.1//EN" "http://www.w3.org/Graphics/SVG/1.1/DTD/svg11.dtd"><svg t="1742110311047"
    class="icon" viewBox="0 0 1024 1024" version="1.1" xmlns="http://www.w3.org/2000/svg" p-id="17254"
    xmlns:xlink="http://www.w3.org/1999/xlink" width="200" height="200">
    <path
        d="M684.088889 898.389333c0 54.101333 43.235556 96.654222 98.304 96.654223s98.304-42.552889 98.304-96.654223c0-54.044444-43.235556-96.597333-98.304-96.597333s-98.304 44.430222-98.304 96.597333zM782.392889 1024c-70.769778 0-127.829333-56.035556-127.829333-125.610667 0-69.518222 57.059556-125.553778 127.829333-125.553777 70.826667 0 127.829333 56.035556 127.829333 125.553777C910.222222 967.964444 853.219556 1024 782.392889 1024z m0-193.194667c-37.376 0-68.835556 30.890667-68.835556 67.584 0 36.750222 31.459556 67.697778 68.835556 67.697778 37.376 0 68.835556-30.947556 68.835555-67.697778 0-36.693333-31.459556-67.584-68.835555-67.584zM143.36 898.389333c0 54.101333 43.235556 96.654222 98.304 96.654223s98.304-42.552889 98.304-96.654223c0-54.044444-43.235556-96.597333-98.304-96.597333s-98.304 44.430222-98.304 96.597333zM241.607111 1024C170.780444 1024 113.777778 967.964444 113.777778 898.389333c0-69.518222 57.002667-125.553778 127.829333-125.553777 70.769778 0 127.829333 56.035556 127.829333 125.553777C369.436444 967.964444 312.32 1024 241.607111 1024z m0-193.194667c-37.376 0-68.835556 30.890667-68.835555 67.584 0 36.750222 31.459556 67.697778 68.835555 67.697778 37.376 0 68.835556-30.947556 68.835556-67.697778 0-36.693333-31.459556-67.584-68.835556-67.584zM143.303111 125.610667c0 54.044444 43.235556 96.597333 98.304 96.597333s98.304-42.552889 98.304-96.597333c0-54.101333-43.235556-96.654222-98.304-96.654223S143.303111 73.443556 143.303111 125.610667z m98.304 125.553777C170.780444 251.164444 113.777778 195.128889 113.777778 125.610667 113.777778 56.035556 170.780444 0 241.607111 0 312.32 0 369.436444 56.035556 369.436444 125.610667c0 69.518222-57.059556 125.553778-127.829333 125.553777z m0-193.194666c-37.376 0-68.835556 30.890667-68.835555 67.640889 0 36.693333 31.459556 67.584 68.835555 67.584 37.376 0 68.835556-30.890667 68.835556-67.584 0-36.750222-31.459556-67.697778-68.835556-67.697778z m540.785778 772.835555a29.980444 29.980444 0 0 1-29.468445-29.013333v-96.597333c0-77.255111-127.829333-129.422222-251.733333-177.720889C414.663111 492.657778 328.135111 457.898667 271.075556 409.6v394.126222c0 15.473778-13.767111 29.013333-29.468445 29.013334a29.980444 29.980444 0 0 1-29.525333-29.013334V224.142222c0-15.473778 13.767111-29.013333 29.525333-29.013333 15.701333 0 29.468444 13.539556 29.468445 29.013333v71.452445c0 77.312 127.829333 129.479111 251.733333 177.777777 141.596444 57.969778 289.109333 115.882667 289.109333 231.822223v96.597333c0 15.473778-13.767111 29.013333-29.525333 29.013333z"
        p-id="17255"></path>
</svg>