<?xml version="1.0" standalone="no"?>
<!DOCTYPE svg PUBLIC "-//W3C//DTD SVG 1.1//EN" "http://www.w3.org/Graphics/SVG/1.1/DTD/svg11.dtd"><svg t="1742113124787"
    class="icon" viewBox="0 0 1030 1024" version="1.1" xmlns="http://www.w3.org/2000/svg" p-id="2528"
    xmlns:xlink="http://www.w3.org/1999/xlink" width="201.171875" height="200">
    <path
        d="M130.913791 554.471901v-127.15349H46.254602a42.494301 42.494301 0 1 1 0-84.65919h84.659189V257.670619a127.15349 127.15349 0 0 1 127.482903-127.15349h84.65919V45.528526a42.494301 42.494301 0 1 1 84.659189 0v84.988603h169.647792V45.528526a42.494301 42.494301 0 1 1 84.659189 0v84.988603h84.659189a127.15349 127.15349 0 0 1 127.153491 127.15349v84.659189h84.659189a42.494301 42.494301 0 1 1 0 84.659189h-84.000363v127.153491h84.659189a42.494301 42.494301 0 0 1 0 84.659189h-84.659189v127.153491a127.15349 127.15349 0 0 1-127.153491 127.15349H682.351467v84.659189a42.494301 42.494301 0 1 1-84.659189 0v-84.000363h-169.647792v84.65919a42.494301 42.494301 0 0 1-84.659189 0v-84.65919H258.396694a127.15349 127.15349 0 0 1-127.15349-127.15349v-127.15349H46.254602a42.494301 42.494301 0 0 1 0-84.65919zM258.396694 216.164557a42.823714 42.823714 0 0 0-42.164888 41.506062v508.943375a42.823714 42.823714 0 0 0 42.164888 42.494301h508.613962a42.823714 42.823714 0 0 0 42.164888-42.494301V257.670619a42.823714 42.823714 0 0 0-42.164888-41.506062z m127.153491 127.153491h254.306981a42.823714 42.823714 0 0 1 42.494301 42.494301v254.306981a42.823714 42.823714 0 0 1-42.494301 42.494301h-254.306981a42.823714 42.823714 0 0 1-42.494301-42.494301v-255.295221a42.823714 42.823714 0 0 1 42.494301-42.494301z m42.494301 254.306981"
        p-id="2529"></path>
</svg>